<?xml version="1.0" encoding="iso-8859-1"?>
<!-- Generator: Adobe Illustrator 19.1.0, SVG Export Plug-In . SVG Version: 6.00 Build 0)  -->
<svg version="1.1" id="Layer_1" xmlns="http://www.w3.org/2000/svg" xmlns:xlink="http://www.w3.org/1999/xlink" x="0px" y="0px"
	 viewBox="0 0 64 64" style="enable-background:new 0 0 64 64;" xml:space="preserve">
<g id="icon-m-previous_2_">
	<rect id="icon-m-previous_3_" style="opacity:0;fill:#FFFFFF;" width="64" height="64"/>
	<g>
		<circle style="opacity:0.2;fill:#FFFFFF;" cx="32" cy="31.999" r="30"/>
		<path style="fill:#FFFFFF;" d="M41.903,44.305c-0.586,0-1.218-0.23-1.827-0.68L27.82,34.584c-0.891-0.657-1.402-1.599-1.402-2.585
			s0.511-1.929,1.402-2.586l12.256-9.04c0.948-0.698,1.949-0.867,2.75-0.464c0.799,0.404,1.258,1.311,1.258,2.488v19.204
			c0,1.178-0.459,2.085-1.259,2.489C42.54,44.233,42.229,44.305,41.903,44.305z M41.898,21.69c-0.075,0-0.297,0.042-0.635,0.292
			l-12.256,9.04c-0.38,0.28-0.589,0.627-0.589,0.977c0,0.349,0.209,0.695,0.589,0.976l12.256,9.041
			c0.391,0.288,0.631,0.298,0.662,0.288c0.028-0.021,0.158-0.217,0.158-0.703V22.397c0-0.486-0.13-0.682-0.162-0.704
			C41.918,21.691,41.91,21.69,41.898,21.69z"/>
		<path style="fill:#FFFFFF;" d="M23,43.6c-0.552,0-1-0.447-1-1V21.4c0-0.552,0.448-1,1-1s1,0.448,1,1v21.2
			C24,43.152,23.552,43.6,23,43.6z"/>
	</g>
</g>
</svg>
