<?xml version="1.0" encoding="iso-8859-1"?>
<!-- Generator: Adobe Illustrator 19.1.0, SVG Export Plug-In . SVG Version: 6.00 Build 0)  -->
<svg version="1.1" id="Layer_1" xmlns="http://www.w3.org/2000/svg" xmlns:xlink="http://www.w3.org/1999/xlink" x="0px" y="0px"
	 viewBox="0 0 64 64" style="enable-background:new 0 0 64 64;" xml:space="preserve">
<g id="icon-m-next_2_">
	<rect id="icon-m-next_3_" style="opacity:0;fill:#FFFFFF;" width="64" height="64"/>
	<g>
		<circle style="opacity:1;fill:#000000;" cx="32" cy="31.999" r="30"/>
		<path style="fill:#FFFFFF;" d="M22.181,44.306c-0.326,0-0.637-0.071-0.923-0.215C20.458,43.687,20,42.78,20,41.603V22.398
			c0-1.177,0.458-2.084,1.258-2.488c0.8-0.406,1.802-0.235,2.75,0.464l12.256,9.04c0.892,0.657,1.402,1.6,1.402,2.586
			s-0.512,1.928-1.402,2.585l-12.256,9.04C23.399,44.075,22.767,44.306,22.181,44.306z M22.187,21.693
			c-0.014,0-0.023,0.001-0.029,0.003C22.129,21.717,22,21.913,22,22.398v19.204c0,0.486,0.129,0.682,0.162,0.703
			c0.032,0.013,0.269-0.002,0.659-0.289l12.256-9.04c0.381-0.28,0.59-0.627,0.59-0.976c0-0.349-0.209-0.696-0.59-0.977l-12.256-9.04
			C22.486,21.738,22.267,21.693,22.187,21.693z"/>
		<path style="fill:#FFFFFF;" d="M41,44.13c-0.553,0-1-0.447-1-1V20.87c0-0.552,0.447-1,1-1s1,0.448,1,1v22.26
			C42,43.683,41.553,44.13,41,44.13z"/>
	</g>
</g>
</svg>
